<?xml version="1.0" encoding="utf-8"?>
<!-- Generator: Adobe Illustrator 17.1.0, SVG Export Plug-In . SVG Version: 6.00 Build 0)  -->
<!DOCTYPE svg PUBLIC "-//W3C//DTD SVG 1.1//EN" "http://www.w3.org/Graphics/SVG/1.1/DTD/svg11.dtd">
<svg version="1.1" id="Layer_1" xmlns:sketch="http://www.bohemiancoding.com/sketch/ns"
	 xmlns="http://www.w3.org/2000/svg" xmlns:xlink="http://www.w3.org/1999/xlink" x="0px" y="0px" viewBox="0 0 1190.6 254.9"
	 enable-background="new 0 0 1190.6 254.9" xml:space="preserve">
<g>
	<g>
		<circle fill="#F0DF99" cx="118.6" cy="124.4" r="114.4"/>
		<g>
			<path fill="#4A7089" d="M170.2,127.7c-3.3-4-7.9-7.3-14.6-8.6c8.6-4,11.9-11.9,11.2-21.8c0-4-1.3-7.3-3.3-9.9
				c-2-2.6-4-4.6-7.3-6.6s-6-3.3-9.9-4c-3.3-0.7-7.3-1.3-11.9-2V53.7h-13.2v21.2c-2,0-6,0-10.6,0V53.7H97.4v21.8c-2,0-4.6,0-7.9,0
				H71.6v13.9h9.3c4,0,6.6,2,7.3,6v24.5c0.7,0,1.3,0,1.3,0h-1.3v34.4c-0.7,2.6-2,4.6-4.6,4.6h-9.3l-2.6,15.9h17.2c1.3,0,2.6,0,4.6,0
				s3.3,0,4.6,0v21.8h13.2v-21.8c2.6,0,6,0,10.6,0v21.2h13.2V174c4.6,0,8.6-0.7,12.6-1.3c4-0.7,7.3-1.3,10.6-3.3
				c3.3-2,6-3.3,7.9-5.3c2-2,4-4.6,5.3-7.3c1.3-3.3,2.6-6.6,2.6-10.6C174.8,138.3,173.5,131.7,170.2,127.7L170.2,127.7z M111.3,89.4
				c0.7,0,1.3,0,3.3,0s3.3,0,4.6,0s2.6,0,4.6,0c2,0,4,0.7,5.3,0.7c1.3,0,3.3,0.7,4.6,1.3c2,0.7,3.3,1.3,4,2.6c1.3,0.7,2,2,2.6,3.3
				c0.7,1.3,1.3,3.3,1.3,5.3c0,1.3,0,3.3-0.7,4.6c-0.7,1.3-1.3,2.6-2.6,3.3c-1.3,0.7-2,1.3-3.3,2.6c-1.3,0.7-2.6,1.3-4,1.3
				c-2,0.7-3.3,0.7-4.6,0.7c-1.3,0-2.6,0.7-4.6,0.7c-2,0-3.3,0-4,0c-0.7,0-2,0-4,0c-2,0-2.6,0-2.6,0V89.4L111.3,89.4z M147,147.6
				c-0.7,1.3-1.3,2.6-2,3.3c-0.7,0.7-2,2-3.3,2.6c-1.3,0.7-2.6,1.3-4,2c-1.3,0.7-2.6,0.7-4.6,1.3c-2,0-3.3,0.7-4.6,0.7
				c-1.3,0-3.3,0-5.3,0s-3.3,0-4.6,0c-1.3,0-2.6,0-4,0c-1.3,0-2.6,0-3.3,0v-29.1c0.7,0,2,0,4,0c2,0,4,0,5.3,0s3.3,0,6,0
				c2.6,0,4.6,0.7,6.6,0.7c2,0,3.3,0.7,5.3,1.3c2,0.7,4,1.3,4.6,2.6c1.3,1.3,2,2.6,3.3,4c0.7,1.3,1.3,3.3,1.3,5.3
				C148.3,144.9,147.7,146.3,147,147.6L147,147.6z"/>
		</g>
	</g>
	<g>
		<path fill="#FFFFFF" d="M330.8,80.6c3.6,2.9,5,7.9,5,13.7c0,8.6-2.9,14.4-8.6,18.7c-5.8,3.6-13.7,5.8-23.7,5.8h-23V34.5h20.1
			c10.1,0,18,1.4,23.7,5c5.8,3.6,8.6,8.6,8.6,15.8c0,5-1.4,8.6-4.3,11.5c-2.9,2.9-6.5,5-10.8,6.5C322.9,75.5,327.2,77.7,330.8,80.6z
			 M295.5,46.8v23h7.2c4.3,0,7.9-0.7,10.1-2.9c2.2-2.2,3.6-5,3.6-8.6c0-4.3-1.4-6.5-3.6-8.6c-2.2-1.4-6.5-2.9-11.5-2.9L295.5,46.8
			L295.5,46.8z M314.9,104.3c2.9-2.2,4.3-5,4.3-10.1c0-9.4-5-13.7-15.1-13.7h-7.9v26.6h7.2C308.5,107.2,312.1,106.5,314.9,104.3z"/>
		<path fill="#FFFFFF" d="M394.8,35.2l-1.4,12.2h-19.4v71.9h-15.8V47.5H338V35.2H394.8z"/>
		<path fill="#FFFFFF" d="M440.8,35.2c3.6,1.4,7.2,3.6,10.1,6.5l-7.9,9.4c-4.3-3.6-9.4-5.8-13.7-5.8c-5.8,0-10.1,2.2-12.9,7.2
			s-5,12.9-5,23.7s1.4,18.7,5,23.7c2.9,5,7.2,7.2,12.9,7.2c2.9,0,5.8-0.7,7.9-1.4c2.2-1.4,4.3-2.9,7.2-5l7.2,9.4
			c-2.9,2.9-6.5,5-10.1,7.2s-7.9,2.9-12.9,2.9c-6.5,0-12.9-1.4-18-5s-9.4-7.9-11.5-15.1c-2.9-6.5-4.3-14.4-4.3-24.5
			c0-9.4,1.4-17.3,4.3-23.7s7.2-11.5,12.2-15.1c5-3.6,10.8-5,17.3-5C433.6,33.1,437.2,33.8,440.8,35.2z"/>
		<path fill="#FFFFFF" d="M538.6,35.2l-1.4,12.2h-19.4v71.9H502V47.5h-20.1V35.2H538.6z"/>
		<path fill="#FFFFFF" d="M571.7,84.9h-8.6v33.8h-15.8V34.5h22.3c20.9,0,31.6,7.9,31.6,24.5c0,5-1.4,10.1-3.6,13.7
			c-2.2,3.6-6.5,6.5-11.5,8.6l19.4,36.7h-17.3L571.7,84.9z M570.3,74.1c5,0,8.6-1.4,10.8-3.6c2.2-2.2,3.6-5.8,3.6-10.8
			c0-4.3-1.4-7.9-3.6-10.1c-2.2-2.2-6.5-2.9-11.5-2.9h-6.5v27.3L570.3,74.1L570.3,74.1z"/>
		<path fill="#FFFFFF" d="M655.2,118.7l-4.3-19.4h-24.5l-4.3,19.4h-15.8l23-84.2h19.4l23,84.2H655.2z M629.3,87.8H648l-9.4-40.3
			L629.3,87.8z"/>
		<path fill="#FFFFFF" d="M719.2,38.1c5.8,2.2,10.1,6.5,13.7,12.2s5,14.4,5,25.9c0,15.8-3.6,26.6-10.1,33.1
			c-7.2,6.5-15.8,9.4-26.6,9.4h-21.6V34.5H699C707,35.2,713.4,36,719.2,38.1z M695.5,46.8v60.4h6.5c6.5,0,10.8-2.2,14.4-6.5
			c3.6-4.3,5-12.2,5-23.7c0-7.9-0.7-14.4-2.9-18.7c-1.4-4.3-4.3-7.2-7.2-8.6c-2.9-1.4-6.5-2.2-10.8-2.2h-5V46.8z"/>
		<path fill="#FFFFFF" d="M796.2,35.2l-1.4,11.5h-27.3v23.7h23.7V82h-23.7v25.2h29.5v11.5h-45.3V34.5h44.6V35.2z"/>
		<path fill="#FFFFFF" d="M891.8,93.5c0,5-1.4,10.1-3.6,13.7c-2.2,4.3-5.8,7.2-10.1,9.4c-4.3,2.2-9.4,3.6-15.8,3.6
			c-9.4,0-16.5-2.2-21.6-7.2c-5-5-7.2-11.5-7.2-19.4v-59h15.8v58.3c0,5,0.7,9.4,2.9,11.5c2.2,2.9,5,3.6,10.1,3.6
			c4.3,0,7.9-1.4,10.1-3.6c2.2-2.9,2.9-6.5,2.9-11.5V34.5h15.8v59H891.8z"/>
		<path fill="#FFFFFF" d="M947.2,118.7l-4.3-19.4h-24.5l-4.3,19.4h-15.8l23-84.2h19.4l23,84.2H947.2z M921.3,87.8H940l-9.4-40.3
			L921.3,87.8z"/>
	</g>
	<g>
		<path fill="#FFFFFF" d="M297,210c-1.4,4.3-2.9,7.2-5,9.4c-2.2,2.2-5,3.6-9.4,4.3l-0.7-4.3c2.2-0.7,3.6-0.7,5-1.4s2.2-1.4,2.9-2.9
			s1.4-2.9,2.2-5h-2.2l-10.1-33.8h5.8l7.9,30.2l7.9-30.2h5.8L297,210z"/>
		<path fill="#FFFFFF" d="M336.5,175.5l-9.4,15.8l10.1,18h-6.5l-8.6-15.8h-3.6v15.8h-5.8v-33.8h5.8v13.7h3.6l7.9-13.7H336.5z"/>
		<path fill="#FFFFFF" d="M366.7,179.1c2.2,2.9,2.9,7.2,2.9,12.9c0,5.8-0.7,10.1-2.9,12.9c-2.2,3.6-5,5-8.6,5s-5.8-1.4-7.9-4.3v16.5
			l-5.8,0.7v-47.5h5v4.3c2.2-3.6,5.8-5.8,9.4-5.8C361.7,174.8,364.6,176.2,366.7,179.1z M363.1,192.8c0-4.3-0.7-7.9-1.4-10.1
			c-1.4-2.2-2.9-2.9-5-2.9c-1.4,0-2.9,0.7-4.3,1.4s-2.2,2.2-3.6,3.6v17.3c1.4,2.9,4.3,4.3,6.5,4.3
			C361,205.7,363.1,201.4,363.1,192.8z"/>
		<path fill="#FFFFFF" d="M399.1,205c0.7,0.7,0.7,1.4,2.2,1.4l-1.4,3.6c-1.4,0-2.9-0.7-3.6-1.4s-1.4-2.2-2.2-3.6c-2.2,3.6-5,5-9.4,5
			c-2.9,0-5.8-0.7-7.2-2.9c-1.4-2.2-2.9-4.3-2.9-7.2c0-3.6,1.4-6.5,3.6-8.6c2.2-2.2,5.8-2.9,10.1-2.9h4.3v-2.9c0-2.2-0.7-4.3-1.4-5
			s-2.9-1.4-5-1.4c-2.2,0-5,0.7-8.6,2.2l-1.4-4.3c3.6-1.4,7.2-2.2,10.8-2.2c7.2,0,10.8,3.6,10.8,10.8v15.8
			C398.4,203.6,399.1,204.3,399.1,205z M392.6,200.7v-7.9H389c-5.8,0-8.6,2.2-8.6,7.2c0,2.2,0.7,3.6,1.4,4.3
			c0.7,1.4,2.2,1.4,3.6,1.4C389,205.7,391.2,204.3,392.6,200.7z"/>
		<path fill="#FFFFFF" d="M433.6,209.3h-5.8V192c0-3.6,0-7.2,0.7-10.8l-13.7,28.1h-6.5v-33.8h5.8V192c0,3.6,0,7.2-0.7,10.8
			l12.9-28.1h6.5v34.5H433.6z"/>
		<path fill="#FFFFFF" d="M462.4,209.3v-15.1h-12.2v15.1h-5.8v-33.8h5.8v14.4h12.2v-14.4h5.8v33.8H462.4z"/>
		<path fill="#FFFFFF" d="M495.5,175.5c1.4,0.7,2.9,1.4,4.3,2.9l-2.9,3.6c-0.7-0.7-2.2-1.4-2.9-2.2c-0.7-0.7-2.2-0.7-3.6-0.7
			c-2.9,0-4.3,1.4-5.8,3.6c-1.4,2.2-2.2,5.8-2.2,10.1c0,8.6,2.9,12.9,7.9,12.9c1.4,0,2.2,0,3.6-0.7c0.7-0.7,2.2-0.7,2.9-2.2l2.9,3.6
			c-2.9,2.2-5.8,3.6-9.4,3.6c-4.3,0-7.9-1.4-10.1-4.3s-3.6-7.2-3.6-12.9c0-3.6,0.7-7.2,1.4-9.4c1.4-2.9,2.9-5,5-6.5
			c2.2-1.4,4.3-2.2,7.2-2.2C491.9,174.8,494.1,174.8,495.5,175.5z"/>
		<path fill="#FFFFFF" d="M530,175.5l-9.4,15.8l10.1,18h-6.5l-8.6-15.8H512v15.8h-5.8v-33.8h5.8v13.7h3.6l7.9-13.7H530z"/>
		<path fill="#FFFFFF" d="M557.3,205c0.7,0.7,0.7,1.4,2.2,1.4l-1.4,3.6c-1.4,0-2.9-0.7-3.6-1.4c-0.7-0.7-1.4-2.2-2.2-3.6
			c-2.2,3.6-5,5-9.4,5c-2.9,0-5.8-0.7-7.2-2.9c-1.4-2.2-2.9-4.3-2.9-7.2c0-3.6,1.4-6.5,3.6-8.6c2.2-2.2,5.8-2.9,10.1-2.9h4.3v-2.9
			c0-2.2-0.7-4.3-1.4-5c-0.7-0.7-2.9-1.4-5-1.4c-2.2,0-5,0.7-8.6,2.2l-1.4-4.3c3.6-1.4,7.2-2.2,10.8-2.2c7.2,0,10.8,3.6,10.8,10.8
			v15.8C556.6,203.6,557.3,204.3,557.3,205z M550.9,200.7v-7.9h-3.6c-5.8,0-8.6,2.2-8.6,7.2c0,2.2,0.7,3.6,1.4,4.3
			c0.7,1.4,2.2,1.4,3.6,1.4C547.3,205.7,549.4,204.3,550.9,200.7z"/>
		<path fill="#FFFFFF" d="M589,175.5v33.8h-5.8v-12.9h-6.5l-6.5,12.9h-5.8l7.2-14.4c-3.6-1.4-5.8-5-5.8-9.4c0-3.6,1.4-5.8,3.6-7.9
			s5.8-2.9,9.4-2.9H589V175.5z M583.2,192v-12.2h-4.3c-2.2,0-4.3,0.7-5,1.4c-1.4,0.7-1.4,2.2-1.4,4.3c0,2.2,0.7,3.6,1.4,5
			c0.7,0.7,2.9,1.4,5,1.4L583.2,192L583.2,192z"/>
		<path fill="#FFFFFF" d="M636.5,182c2.2,2.9,2.9,6.5,2.9,11.5c0,5.8-1.4,10.1-3.6,12.9c-2.2,2.9-5.8,4.3-10.1,4.3
			c-4.3,0-7.9-1.4-10.1-5c-2.2-2.9-3.6-7.9-3.6-15.1c0-5,0-9.4,0.7-12.2c0.7-2.9,2.2-5.8,3.6-7.9c1.4-2.2,4.3-3.6,7.2-5
			c2.2-0.7,4.3-1.4,5.8-2.2c1.4-0.7,2.9-1.4,4.3-2.2l2.2,3.6c-2.2,1.4-5,2.9-9.4,5c-2.2,0.7-3.6,1.4-4.3,2.9
			c-1.4,0.7-2.2,2.2-2.9,4.3s-1.4,4.3-1.4,7.2c1.4-2.2,2.9-3.6,4.3-5c1.4-1.4,3.6-1.4,5.8-1.4C632.2,177.7,635,179.1,636.5,182z
			 M631.4,203.6c1.4-1.4,2.2-5,2.2-9.4c0-4.3-0.7-7.2-1.4-8.6c-1.4-1.4-2.9-2.9-5-2.9c-1.4,0-3.6,0.7-5,1.4c-1.4,0.7-2.9,2.9-3.6,5
			v3.6c0,8.6,2.9,12.9,7.9,12.9C628.6,205.7,630.7,205,631.4,203.6z"/>
		<path fill="#FFFFFF" d="M672.4,209.3h-5.8V192c0-3.6,0-7.2,0.7-10.8l-13.7,28.1h-6.5v-33.8h5.8V192c0,3.6,0,7.2-0.7,10.8
			l12.9-28.1h6.5v34.5H672.4z"/>
		<path fill="#FFFFFF" d="M706.2,179.1c2.2,2.9,2.9,7.2,2.9,12.9c0,5.8-0.7,10.1-2.9,12.9c-2.2,3.6-5,5-8.6,5s-5.8-1.4-7.9-4.3v16.5
			l-5.8,0.7v-47.5h5v4.3c2.2-3.6,5.8-5.8,9.4-5.8C701.2,174.8,704.1,176.2,706.2,179.1z M702.6,192.8c0-4.3-0.7-7.9-1.4-10.1
			c-1.4-2.2-2.9-2.9-5-2.9c-1.4,0-2.9,0.7-4.3,1.4s-2.2,2.2-3.6,3.6v17.3c1.4,2.9,4.3,4.3,6.5,4.3
			C700.5,205.7,702.6,201.4,702.6,192.8z"/>
		<path fill="#FFFFFF" d="M751.6,175.5l-7.2,15.8l8.6,18h-5.8l-7.2-15.8h-4.3v15.8h-5v-15.8h-4.3l-7.2,15.8h-5.8l8.6-18l-7.9-15.8
			h5.8l6.5,14.4h4.3v-14.4h5v14.4h4.3l6.5-14.4H751.6z"/>
		<path fill="#FFFFFF" d="M779.6,205c0.7,0.7,0.7,1.4,2.2,1.4l-1.4,3.6c-1.4,0-2.9-0.7-3.6-1.4c-0.7-0.7-1.4-2.2-2.2-3.6
			c-2.2,3.6-5,5-9.4,5c-2.9,0-5.8-0.7-7.2-2.9c-1.4-2.2-2.9-4.3-2.9-7.2c0-3.6,1.4-6.5,3.6-8.6c2.2-2.2,5.8-2.9,10.1-2.9h4.3v-2.9
			c0-2.2-0.7-4.3-1.4-5c-0.7-0.7-2.9-1.4-5-1.4c-2.2,0-5,0.7-8.6,2.2l-1.4-4.3c3.6-1.4,7.2-2.2,10.8-2.2c7.2,0,10.8,3.6,10.8,10.8
			v15.8C778.9,203.6,778.9,204.3,779.6,205z M773.1,200.7v-7.9h-3.6c-5.8,0-8.6,2.2-8.6,7.2c0,2.2,0.7,3.6,1.4,4.3
			c0.7,1.4,2.2,1.4,3.6,1.4C768.8,205.7,771,204.3,773.1,200.7z"/>
		<path fill="#FFFFFF" d="M827.8,175.5l-9.4,15.8l10.1,18H822l-8.6-15.8h-3.6v15.8h-5.8v-33.8h5.8v13.7h3.6l7.9-13.7H827.8z"/>
		<path fill="#FFFFFF" d="M858,179.1c2.2,2.9,2.9,7.2,2.9,12.9c0,5.8-0.7,10.1-2.9,12.9c-2.2,3.6-5,5-8.6,5s-5.8-1.4-7.9-4.3v16.5
			l-5.8,0.7v-47.5h5v4.3c2.2-3.6,5.8-5.8,9.4-5.8C853,174.8,855.9,176.2,858,179.1z M854.4,192.8c0-4.3-0.7-7.9-1.4-10.1
			c-1.4-2.2-2.9-2.9-5-2.9c-1.4,0-2.9,0.7-4.3,1.4c-1.4,0.7-2.2,2.2-3.6,3.6v17.3c1.4,2.9,4.3,4.3,6.5,4.3
			C852.3,205.7,854.4,201.4,854.4,192.8z"/>
		<path fill="#FFFFFF" d="M893.3,209.3h-5.8V192c0-3.6,0-7.2,0.7-10.8l-13.7,28.1h-6.5v-33.8h5.8V192c0,3.6,0,7.2-0.7,10.8
			l12.9-28.1h6.5v34.5H893.3z"/>
		<path fill="#FFFFFF" d="M922,209.3v-29.5h-12.2v29.5H904v-33.8h23.7v33.8H922z"/>
		<path fill="#FFFFFF" d="M959.4,175.5l-0.7,4.3h-9.4v29.5h-5.8v-28.8h-10.1v-4.3h25.9V175.5z"/>
		<path fill="#FFFFFF" d="M985.3,179.1c2.2,2.9,3.6,7.2,3.6,12.9c0,5.8-1.4,10.1-3.6,12.9c-2.2,2.9-5.8,5-10.1,5
			c-4.3,0-7.9-1.4-10.1-5c-2.2-2.9-3.6-7.2-3.6-12.9c0-5.8,1.4-10.1,3.6-12.9s5.8-5,10.1-5S982.4,176.2,985.3,179.1z M968.8,182.7
			c-1.4,2.2-2.2,5.8-2.2,10.1c0,8.6,2.9,12.9,7.9,12.9c5,0,7.9-4.3,7.9-13.7c0-4.3-0.7-7.9-2.2-10.1s-2.9-2.9-5.8-2.9
			C972.4,179.1,970.2,180.5,968.8,182.7z"/>
		<path fill="#FFFFFF" d="M1021.3,199.2c0,3.6-1.4,5.8-3.6,7.9c-2.2,2.2-5.8,2.9-9.4,2.9h-10.8v-33.8c4.3-0.7,7.9-1.4,10.8-1.4
			c3.6,0,6.5,0.7,8.6,2.2c2.2,1.4,2.9,3.6,2.9,6.5c0,3.6-2.2,6.5-6.5,7.2C1018.4,192,1021.3,194.2,1021.3,199.2z M1002.6,179.1v10.1
			h5.8c3.6,0,5.8-1.4,5.8-5c0-2.2-0.7-2.9-1.4-4.3s-2.9-1.4-5-1.4C1006.2,179.1,1004.7,179.1,1002.6,179.1z M1015.5,199.2
			c0-2.2-0.7-3.6-1.4-4.3s-2.9-1.4-5-1.4h-5.8v12.2h5C1012.7,205,1015.5,203.6,1015.5,199.2z"/>
		<path fill="#FFFFFF" d="M1050.8,205c0.7,0.7,0.7,1.4,2.2,1.4l-1.4,3.6c-1.4,0-2.9-0.7-3.6-1.4s-1.4-2.2-2.2-3.6
			c-2.2,3.6-5,5-9.4,5c-2.9,0-5.8-0.7-7.2-2.9c-1.4-2.2-2.9-4.3-2.9-7.2c0-3.6,1.4-6.5,3.6-8.6c2.2-2.2,5.8-2.9,10.1-2.9h4.3v-2.9
			c0-2.2-0.7-4.3-1.4-5s-2.9-1.4-5-1.4c-2.2,0-5,0.7-8.6,2.2l-1.4-4.3c3.6-1.4,7.2-2.2,10.8-2.2c7.2,0,10.8,3.6,10.8,10.8v15.8
			C1050.1,203.6,1050.8,204.3,1050.8,205z M1044.3,200.7v-7.9h-3.6c-5.8,0-8.6,2.2-8.6,7.2c0,2.2,0.7,3.6,1.4,4.3
			c0.7,1.4,2.2,1.4,3.6,1.4C1040.7,205.7,1042.9,204.3,1044.3,200.7z"/>
		<path fill="#FFFFFF" d="M1083.9,175.5v33.8h-5.8v-29.5h-9.4L1068,192c0,4.3-0.7,7.9-1.4,10.1c-0.7,2.2-1.4,3.6-2.2,5
			c-1.4,1.4-2.9,2.2-5,2.9l-1.4-4.3c1.4-0.7,2.2-1.4,2.9-2.2c0.7-0.7,0.7-2.2,1.4-3.6c0-1.4,0.7-4.3,0.7-7.9l1.4-16.5L1083.9,175.5
			L1083.9,175.5z"/>
		<path fill="#FFFFFF" d="M1127.7,179.1c2.2,2.9,3.6,7.2,3.6,12.9c0,5.8-1.4,10.1-3.6,12.9c-2.2,2.9-5.8,5-9.4,5s-7.2-1.4-9.4-4.3
			s-3.6-6.5-3.6-11.5h-5.8v15.1h-5.8v-33.8h5.8v14.4h5.8c0.7-5,1.4-8.6,4.3-11.5c2.2-2.9,5-4.3,9.4-4.3
			C1122.7,174.8,1125.6,176.2,1127.7,179.1z M1124.1,202.8c1.4-2.2,1.4-5.8,1.4-10.1c0-8.6-2.2-12.9-7.2-12.9
			c-2.2,0-4.3,0.7-5.8,2.9c-1.4,2.2-1.4,5.8-1.4,10.1c0,8.6,2.2,12.9,7.2,12.9C1120.5,205.7,1122.7,205,1124.1,202.8z"/>
		<path fill="#FFFFFF" d="M1159.4,175.5l-0.7,4.3h-9.4v29.5h-5.8v-28.8h-10.1v-4.3h25.9V175.5z"/>
	</g>
</g>
</svg>
